<svg xmlns="http://www.w3.org/2000/svg" width="152" height="152" fill="none"><g clip-path="url(#a)"><path fill="#E84D37" d="M0 0h152v152H0z"/><path fill="#fff" d="M76.122 24.71a23.966 23.966 0 0 1 11.768 3.077 23.325 23.325 0 0 1 8.626 8.416 22.69 22.69 0 0 1 3.18 11.507 22.686 22.686 0 0 1-3.114 11.525 7.824 7.824 0 0 1 3.866 1.683 7.575 7.575 0 0 1 2.384 3.422 7.414 7.414 0 0 1 .19 4.137 7.53 7.53 0 0 1-2.06 3.617 7.79 7.79 0 0 1-3.696 2.016 7.903 7.903 0 0 1-4.227-.186 7.75 7.75 0 0 1-3.496-2.333 7.5 7.5 0 0 1-1.72-3.784c-.292.163-.592.318-.892.473a10.664 10.664 0 0 1-3.713 6.445 11.094 11.094 0 0 1-7.096 2.554c-2.6 0-5.115-.905-7.095-2.554a10.663 10.663 0 0 1-3.714-6.445c-.3-.155-.6-.31-.892-.473a7.5 7.5 0 0 1-1.72 3.787 7.75 7.75 0 0 1-3.5 2.335 7.903 7.903 0 0 1-4.23.183 7.789 7.789 0 0 1-3.697-2.022 7.534 7.534 0 0 1-2.056-3.624 7.422 7.422 0 0 1 .2-4.14 7.574 7.574 0 0 1 2.395-3.418 7.825 7.825 0 0 1 3.874-1.673 22.686 22.686 0 0 1-3.114-11.519 22.69 22.69 0 0 1 3.174-11.502 23.324 23.324 0 0 1 8.616-8.418 23.965 23.965 0 0 1 11.76-3.087Zm0-5.71a29.916 29.916 0 0 0-13.318 3.113 29.237 29.237 0 0 0-10.431 8.68 28.443 28.443 0 0 0-5.283 12.362 28.183 28.183 0 0 0 1.013 13.364c-2.728 2.129-4.512 5.206-4.98 8.59a13.05 13.05 0 0 0 2.466 9.577c2.052 2.762 5.113 4.643 8.546 5.252a13.792 13.792 0 0 0 9.886-1.985 16.867 16.867 0 0 0 5.542 3.734 17.168 17.168 0 0 0 6.592 1.315c2.266 0 4.508-.447 6.593-1.315a16.868 16.868 0 0 0 5.542-3.734 13.798 13.798 0 0 0 9.77 1.754c3.365-.647 6.355-2.518 8.367-5.238a13.051 13.051 0 0 0 2.469-9.416c-.424-3.331-2.124-6.38-4.755-8.534a28.178 28.178 0 0 0 1.013-13.364 28.445 28.445 0 0 0-5.283-12.363 29.238 29.238 0 0 0-10.431-8.679A29.916 29.916 0 0 0 76.122 19Z"/><path fill="#fff" d="M95.482 83.28a17.064 17.064 0 0 1-6.667-1.37c-.309.244-.634.464-.959.693l.442.424-3.25 3.18-1.392-1.361c-.575.22-1.159.415-1.759.587l1.967 1.925-3.242 3.18-3.266-3.18 1.291-1.265c-.829.104-1.664.158-2.5.163a19.74 19.74 0 0 1-2.425-.154l1.283 1.256-3.25 3.18-3.25-3.18 1.95-1.909a18.3 18.3 0 0 1-1.75-.587l-1.4 1.346-3.284-3.181.409-.4c-.342-.237-.676-.465-1-.718a17.063 17.063 0 0 1-6.668 1.37h-.5c-.063.445-.017.898.134 1.322l16.984 46.588c.019.056.041.111.067.163.023.057.05.112.083.164.059.114.125.22.192.326l.075.106c.103.134.217.26.342.375l.083.065.325.245.15.082a2.9 2.9 0 0 0 .358.163h.092l.333.081h.134c.308.055.624.055.933 0h.142l.325-.081h.142a3.65 3.65 0 0 0 .35-.163l.15-.09c.116-.067.225-.146.325-.237l.091-.065c.123-.117.237-.243.342-.375l.067-.106c.074-.104.141-.213.2-.326l.15-.327 17.017-46.613c.155-.423.201-.876.134-1.321-.167 0-.292.025-.5.025ZM83.814 96.028l-3.25 3.18-3.208-3.18 3.241-3.181 3.217 3.18Zm-10.909 4.331 3.25-3.181 3.25 3.181-3.25 3.181-3.25-3.181Zm6.5 8.67-3.25 3.181-3.25-3.181 3.25-3.181 3.25 3.181Zm-3.25-20.513 3.25 3.18-3.25 3.157-3.25-3.18 3.25-3.157Zm-1.175 7.512-3.25 3.18-3.25-3.18 3.25-3.181 3.25 3.18ZM62.554 84.495l.317-.31 3.25 3.173-1.858 1.786-1.709-4.65Zm2.3 6.386 2.417-2.365 3.242 3.18-3.208 3.157-1.492-1.46-.958-2.512Zm2.36 6.42.09-.09 3.243 3.18-1.625 1.632-1.709-4.723Zm3.474 9.583-1.183-3.263 2.192-2.137 3.25 3.181-3.217 3.238-1.042-1.019Zm2.859 7.846-1.559-4.258 2.959 2.888-1.4 1.37Zm2.542 6.982-1.925-5.286 1.958-1.916 1.909 1.868-1.942 5.334Zm2.567-7.031-1.3-1.321 2.841-2.79-1.541 4.111Zm2.866-7.691-.941.913-3.225-3.213 3.241-3.173 2.142 2.088-1.217 3.385Zm1.85-5.082-1.575-1.549 3.25-3.181v.04l-1.674 4.69Zm3.06-8.392-1.418 1.337-3.25-3.18 3.25-3.182 2.342 2.341-.925 2.684Zm1.566-4.372-1.809-1.778 3.25-3.181.267.26-1.708 4.699Z"/></g><defs><clipPath id="a"><rect width="152" height="152" fill="#fff" rx="76"/></clipPath></defs></svg>