<svg width="22" height="23" viewBox="0 0 22 23" fill="none" xmlns="http://www.w3.org/2000/svg">
<g filter="url(#filter0_d_63_135)">
<path d="M16.8911 2.99447C16.5506 2.65381 16.1463 2.38357 15.7014 2.19919C15.2564 2.01482 14.7795 1.91992 14.2978 1.91992C13.8161 1.91992 13.3392 2.01482 12.8942 2.19919C12.4493 2.38357 12.045 2.65381 11.7045 2.99447L10.9978 3.70114L10.2911 2.99447C9.60334 2.30668 8.67049 1.92028 7.6978 1.92028C6.72511 1.92028 5.79226 2.30668 5.10447 2.99447C4.41667 3.68227 4.03027 4.61512 4.03027 5.58781C4.03027 6.56049 4.41667 7.49334 5.10447 8.18114L5.81113 8.88781L10.9978 14.0745L16.1845 8.88781L16.8911 8.18114C17.2318 7.84064 17.502 7.43635 17.6864 6.99138C17.8708 6.5464 17.9657 6.06946 17.9657 5.58781C17.9657 5.10615 17.8708 4.62921 17.6864 4.18424C17.502 3.73926 17.2318 3.33498 16.8911 2.99447Z" fill="#2D3440"/>
</g>
<defs>
<filter id="filter0_d_63_135" x="-1" y="0" width="24" height="24" filterUnits="userSpaceOnUse" color-interpolation-filters="sRGB">
<feFlood flood-opacity="0" result="BackgroundImageFix"/>
<feColorMatrix in="SourceAlpha" type="matrix" values="0 0 0 0 0 0 0 0 0 0 0 0 0 0 0 0 0 0 127 0" result="hardAlpha"/>
<feOffset dy="4"/>
<feGaussianBlur stdDeviation="2"/>
<feComposite in2="hardAlpha" operator="out"/>
<feColorMatrix type="matrix" values="0 0 0 0 0 0 0 0 0 0 0 0 0 0 0 0 0 0 0.25 0"/>
<feBlend mode="normal" in2="BackgroundImageFix" result="effect1_dropShadow_63_135"/>
<feBlend mode="normal" in="SourceGraphic" in2="effect1_dropShadow_63_135" result="shape"/>
</filter>
</defs>
</svg>
